<svg xmlns="http://www.w3.org/2000/svg" width="512" height="512" viewBox="0 0 512 512"><defs><linearGradient id="a" x1=".5" x2=".5" y2="1" gradientUnits="objectBoundingBox"><stop offset="0" stop-color="#ffb508"/><stop offset="1" stop-color="#fc2a02"/></linearGradient></defs><g transform="translate(-13015 -1402)"><circle cx="256" cy="256" r="256" fill="url(#a)" data-name="Ellipse 22-2" transform="translate(13015 1402)"/><g data-name="Group 1321" transform="translate(12931 376)"><path fill="#fff" d="M447.582,1281.979" data-name="Path 299"/><g data-name="Group 1320"><g data-name="Group 1313"><path fill="#fff" d="M242.035,1382.557l11.05-22.1H385.794a33.2,33.2,0,0,0,33.149-33.149h0a33.2,33.2,0,0,0-33.149-33.151H275.184v-22.1h110.61a55.266,55.266,0,0,1,55.249,55.249h0a55.266,55.266,0,0,1-55.249,55.251Z" data-name="Path 1"/><path fill="#fff" d="M385.794,1388.643H232.113l17.251-34.389H385.907a27.061,27.061,0,0,0,0-54.121H269.1v-34.39H385.8a61.45,61.45,0,0,1,.041,122.9h-.043Zm-133.837-12.29H385.794a49.16,49.16,0,0,0,0-98.32H281.386v9.81H385.794a39.351,39.351,0,1,1,.56,78.7H256.918Z" data-name="Path 300"/></g><g data-name="Group 1314"><path fill="#fff" d="M242.035,1182.306l11.05,22.1H371.023a33.2,33.2,0,0,1,33.149,33.149h0a33.2,33.2,0,0,1-33.149,33.151H286.235v22.1h84.79a55.266,55.266,0,0,0,55.249-55.249h0a55.265,55.265,0,0,0-55.251-55.251Z" data-name="Path 2"/><path fill="#fff" d="M371.023,1299.005H280.145v-34.39h90.878a27.061,27.061,0,0,0,0-54.121H249.251L232,1176.1H370.911a61.45,61.45,0,0,1,.113,122.9Zm-78.588-12.29h78.588a49.16,49.16,0,1,0,0-98.32H251.957l4.961,9.809H371.023a39.351,39.351,0,0,1,0,78.7H292.435Z" data-name="Path 301"/></g><g data-name="Group 1315"><rect width="22.099" height="199.008" fill="#fff" data-name="Rectangle 2" transform="translate(275.184 1183.434)"/><path fill="#fff" d="M303.484,1388.645H269.1v-211.3h34.389Zm-22.1-12.29H291.2v-186.72h-9.81v186.72Z" data-name="Path 302"/></g><g data-name="Group 1316"><rect width="22.099" height="44.199" fill="#fff" data-name="Rectangle 3" transform="translate(302.245 1149.044)"/><path fill="#fff" d="M327.388,1196.4h-28.3V1146h28.3Zm-22.1-6.2H321.3v-38.11H305.288Z" data-name="Path 303"/></g><g data-name="Group 1317"><rect width="22.099" height="44.199" fill="#fff" data-name="Rectangle 4" transform="translate(350.164 1149.044)"/><path fill="#fff" d="M375.307,1196.4h-28.3V1146h28.3Zm-22.1-6.2h16.011v-38.11H353.207Z" data-name="Path 304"/></g><g data-name="Group 1318"><rect width="22.099" height="44.199" fill="#fff" data-name="Rectangle 5" transform="translate(302.245 1370.264)"/><path fill="#fff" d="M327.388,1417.507h-28.3v-50.4h28.3Zm-22.1-6.089H321.3v-38.111H305.288Z" data-name="Path 305"/></g><g data-name="Group 1319"><rect width="22.099" height="44.199" fill="#fff" data-name="Rectangle 6" transform="translate(350.164 1370.264)"/><path fill="#fff" d="M375.307,1417.507h-28.3v-50.4h28.3Zm-22.1-6.089h16.011v-38.111H353.207Z" data-name="Path 306"/></g></g></g></g></svg>